<svg xmlns="http://www.w3.org/2000/svg" xmlns:xlink="http://www.w3.org/1999/xlink" width="500" zoomAndPan="magnify" viewBox="0 0 375 374.999991" height="500" preserveAspectRatio="xMidYMid meet" version="1.0"><defs><clipPath id="459eb27be4"><path d="M 18 16.25 L 357.375 16.25 L 357.375 355 L 18 355 Z M 18 16.25 " clip-rule="nonzero"/></clipPath><clipPath id="0a21787ca0"><path d="M 288 110 L 357.375 110 L 357.375 234 L 288 234 Z M 288 110 " clip-rule="nonzero"/></clipPath></defs><g clip-path="url(#459eb27be4)"><path fill="#f0f3ff" d="M 188.101562 16.25 C 185.332031 16.25 182.5625 16.316406 179.796875 16.453125 C 177.03125 16.589844 174.273438 16.792969 171.515625 17.0625 C 168.761719 17.335938 166.011719 17.671875 163.273438 18.078125 C 160.535156 18.484375 157.808594 18.957031 155.089844 19.5 C 152.375 20.039062 149.675781 20.644531 146.988281 21.316406 C 144.300781 21.988281 141.632812 22.726562 138.984375 23.53125 C 136.335938 24.335938 133.707031 25.203125 131.097656 26.136719 C 128.492188 27.070312 125.910156 28.066406 123.351562 29.125 C 120.792969 30.183594 118.261719 31.304688 115.757812 32.488281 C 113.253906 33.671875 110.78125 34.917969 108.339844 36.222656 C 105.898438 37.527344 103.488281 38.890625 101.113281 40.316406 C 98.738281 41.738281 96.398438 43.21875 94.097656 44.757812 C 91.796875 46.296875 89.53125 47.890625 87.308594 49.539062 C 85.082031 51.1875 82.902344 52.890625 80.761719 54.648438 C 78.621094 56.40625 76.523438 58.210938 74.472656 60.070312 C 72.417969 61.929688 70.414062 63.839844 68.457031 65.796875 C 66.5 67.753906 64.589844 69.761719 62.730469 71.8125 C 60.871094 73.863281 59.0625 75.960938 57.304688 78.101562 C 55.546875 80.242188 53.84375 82.421875 52.195312 84.648438 C 50.546875 86.871094 48.953125 89.132812 47.414062 91.4375 C 45.875 93.738281 44.394531 96.078125 42.96875 98.453125 C 41.546875 100.828125 40.179688 103.234375 38.875 105.675781 C 37.570312 108.121094 36.324219 110.59375 35.140625 113.09375 C 33.957031 115.597656 32.835938 118.128906 31.777344 120.6875 C 30.714844 123.246094 29.71875 125.828125 28.785156 128.433594 C 27.851562 131.042969 26.984375 133.671875 26.179688 136.320312 C 25.378906 138.96875 24.636719 141.636719 23.964844 144.324219 C 23.292969 147.011719 22.6875 149.710938 22.144531 152.425781 C 21.605469 155.140625 21.132812 157.871094 20.726562 160.609375 C 20.320312 163.347656 19.980469 166.09375 19.707031 168.851562 C 19.4375 171.605469 19.234375 174.367188 19.097656 177.132812 C 18.960938 179.898438 18.894531 182.667969 18.894531 185.433594 C 18.894531 188.203125 18.960938 190.972656 19.097656 193.738281 C 19.230469 196.503906 19.433594 199.265625 19.707031 202.019531 C 19.976562 204.773438 20.316406 207.523438 20.722656 210.261719 C 21.128906 213 21.601562 215.726562 22.140625 218.445312 C 22.683594 221.160156 23.289062 223.859375 23.960938 226.546875 C 24.632812 229.234375 25.371094 231.902344 26.175781 234.550781 C 26.980469 237.199219 27.847656 239.828125 28.78125 242.4375 C 29.714844 245.042969 30.710938 247.625 31.769531 250.183594 C 32.828125 252.742188 33.949219 255.273438 35.132812 257.777344 C 36.316406 260.28125 37.5625 262.753906 38.867188 265.195312 C 40.171875 267.636719 41.535156 270.046875 42.960938 272.421875 C 44.382812 274.796875 45.863281 277.136719 47.402344 279.4375 C 48.941406 281.738281 50.535156 284.003906 52.183594 286.226562 C 53.835938 288.453125 55.535156 290.632812 57.292969 292.773438 C 59.050781 294.914062 60.859375 297.011719 62.71875 299.0625 C 64.578125 301.113281 66.484375 303.121094 68.445312 305.078125 C 70.402344 307.035156 72.40625 308.945312 74.457031 310.804688 C 76.511719 312.664062 78.605469 314.472656 80.746094 316.230469 C 82.886719 317.984375 85.070312 319.6875 87.292969 321.339844 C 89.515625 322.988281 91.78125 324.582031 94.082031 326.121094 C 96.386719 327.660156 98.722656 329.140625 101.097656 330.5625 C 103.472656 331.988281 105.882812 333.351562 108.324219 334.65625 C 110.765625 335.960938 113.238281 337.207031 115.742188 338.390625 C 118.246094 339.574219 120.777344 340.699219 123.332031 341.757812 C 125.890625 342.816406 128.476562 343.8125 131.082031 344.746094 C 133.6875 345.679688 136.316406 346.546875 138.96875 347.351562 C 141.617188 348.15625 144.285156 348.894531 146.972656 349.566406 C 149.65625 350.238281 152.359375 350.847656 155.074219 351.386719 C 157.789062 351.925781 160.515625 352.398438 163.257812 352.804688 C 165.996094 353.210938 168.742188 353.550781 171.5 353.824219 C 174.253906 354.09375 177.015625 354.296875 179.78125 354.433594 C 182.546875 354.570312 185.3125 354.636719 188.082031 354.636719 C 190.851562 354.636719 193.617188 354.570312 196.382812 354.433594 C 199.148438 354.300781 201.910156 354.09375 204.667969 353.824219 C 207.421875 353.550781 210.167969 353.214844 212.910156 352.808594 C 215.648438 352.402344 218.375 351.929688 221.089844 351.386719 C 223.808594 350.847656 226.507812 350.242188 229.195312 349.570312 C 231.878906 348.894531 234.546875 348.15625 237.199219 347.355469 C 239.847656 346.550781 242.476562 345.683594 245.082031 344.75 C 247.691406 343.816406 250.273438 342.820312 252.832031 341.761719 C 255.390625 340.699219 257.921875 339.578125 260.425781 338.394531 C 262.925781 337.210938 265.398438 335.96875 267.839844 334.660156 C 270.285156 333.355469 272.691406 331.992188 275.066406 330.566406 C 277.441406 329.144531 279.78125 327.664062 282.082031 326.125 C 284.386719 324.585938 286.648438 322.992188 288.875 321.34375 C 291.097656 319.695312 293.28125 317.992188 295.421875 316.234375 C 297.5625 314.476562 299.65625 312.667969 301.710938 310.808594 C 303.761719 308.949219 305.765625 307.042969 307.722656 305.085938 C 309.683594 303.125 311.589844 301.121094 313.449219 299.070312 C 315.308594 297.019531 317.117188 294.921875 318.875 292.78125 C 320.632812 290.640625 322.335938 288.457031 323.984375 286.234375 C 325.632812 284.011719 327.226562 281.746094 328.765625 279.445312 C 330.304688 277.140625 331.785156 274.804688 333.207031 272.429688 C 334.632812 270.054688 335.996094 267.644531 337.300781 265.203125 C 338.609375 262.761719 339.851562 260.289062 341.035156 257.785156 C 342.21875 255.28125 343.34375 252.75 344.402344 250.191406 C 345.460938 247.632812 346.457031 245.050781 347.390625 242.445312 C 348.324219 239.835938 349.191406 237.210938 349.996094 234.558594 C 350.800781 231.910156 351.539062 229.242188 352.210938 226.554688 C 352.882812 223.871094 353.488281 221.167969 354.03125 218.453125 C 354.570312 215.738281 355.042969 213.007812 355.449219 210.269531 C 355.855469 207.53125 356.195312 204.785156 356.464844 202.027344 C 356.738281 199.273438 356.941406 196.511719 357.078125 193.746094 C 357.214844 190.980469 357.28125 188.214844 357.28125 185.445312 C 357.28125 182.675781 357.214844 179.90625 357.078125 177.140625 C 356.941406 174.375 356.738281 171.617188 356.46875 168.859375 C 356.195312 166.105469 355.859375 163.359375 355.453125 160.617188 C 355.046875 157.878906 354.574219 155.152344 354.03125 152.4375 C 353.492188 149.722656 352.886719 147.019531 352.214844 144.335938 C 351.542969 141.648438 350.804688 138.980469 350 136.332031 C 349.195312 133.679688 348.328125 131.050781 347.394531 128.445312 C 346.460938 125.839844 345.464844 123.253906 344.40625 120.699219 C 343.347656 118.140625 342.226562 115.609375 341.042969 113.105469 C 339.859375 110.601562 338.613281 108.128906 337.308594 105.6875 C 336.003906 103.246094 334.640625 100.835938 333.214844 98.460938 C 331.792969 96.085938 330.3125 93.75 328.773438 91.445312 C 327.234375 89.144531 325.640625 86.878906 323.992188 84.65625 C 322.34375 82.433594 320.640625 80.25 318.882812 78.109375 C 317.128906 75.96875 315.320312 73.871094 313.460938 71.820312 C 311.601562 69.769531 309.691406 67.765625 307.734375 65.804688 C 305.777344 63.847656 303.769531 61.941406 301.71875 60.082031 C 299.667969 58.222656 297.574219 56.414062 295.433594 54.65625 C 293.292969 52.898438 291.109375 51.195312 288.886719 49.546875 C 286.660156 47.898438 284.398438 46.304688 282.097656 44.765625 C 279.792969 43.226562 277.457031 41.746094 275.082031 40.320312 C 272.707031 38.898438 270.296875 37.535156 267.855469 36.230469 C 265.414062 34.921875 262.941406 33.679688 260.4375 32.496094 C 257.933594 31.3125 255.402344 30.1875 252.847656 29.128906 C 250.289062 28.070312 247.707031 27.074219 245.097656 26.140625 C 242.492188 25.207031 239.863281 24.339844 237.214844 23.535156 C 234.5625 22.730469 231.894531 21.992188 229.210938 21.320312 C 226.523438 20.648438 223.824219 20.042969 221.109375 19.5 C 218.390625 18.960938 215.664062 18.488281 212.925781 18.082031 C 210.1875 17.675781 207.4375 17.335938 204.683594 17.066406 C 201.929688 16.792969 199.167969 16.589844 196.402344 16.453125 C 193.636719 16.316406 190.871094 16.25 188.101562 16.25 Z M 188.101562 16.25 " fill-opacity="1" fill-rule="nonzero"/></g><path fill="#24d3ed" d="M 282.597656 143.695312 L 279.527344 144.257812 C 275.328125 145.03125 271.101562 145.21875 266.847656 144.824219 C 262.597656 144.429688 258.480469 143.46875 254.492188 141.9375 L 205.378906 122.996094 C 204.273438 122.570312 203.148438 122.21875 202 121.9375 C 200.851562 121.65625 199.691406 121.445312 198.515625 121.3125 C 197.339844 121.175781 196.160156 121.117188 194.976562 121.128906 C 193.796875 121.144531 192.617188 121.230469 191.449219 121.394531 C 190.277344 121.558594 189.121094 121.792969 187.976562 122.105469 C 186.835938 122.414062 185.71875 122.792969 184.625 123.242188 C 183.53125 123.695312 182.472656 124.210938 181.441406 124.796875 C 180.414062 125.382812 179.425781 126.027344 178.480469 126.738281 L 133.40625 160.546875 C 133.203125 160.695312 133.023438 160.867188 132.863281 161.0625 C 132.699219 161.253906 132.5625 161.464844 132.453125 161.691406 C 132.339844 161.914062 132.253906 162.152344 132.195312 162.394531 C 132.136719 162.640625 132.109375 162.890625 132.109375 163.140625 C 132.109375 163.394531 132.136719 163.640625 132.195312 163.886719 C 132.253906 164.132812 132.339844 164.367188 132.453125 164.59375 C 132.5625 164.816406 132.699219 165.027344 132.863281 165.21875 C 133.023438 165.414062 133.203125 165.585938 133.40625 165.738281 C 134.425781 166.496094 135.496094 167.167969 136.625 167.757812 C 137.75 168.34375 138.917969 168.839844 140.121094 169.238281 C 141.328125 169.636719 142.558594 169.9375 143.8125 170.140625 C 145.066406 170.34375 146.328125 170.445312 147.597656 170.445312 C 148.871094 170.445312 150.132812 170.34375 151.386719 170.140625 C 152.640625 169.9375 153.871094 169.636719 155.078125 169.238281 C 156.28125 168.839844 157.449219 168.34375 158.574219 167.757812 C 159.703125 167.167969 160.773438 166.496094 161.792969 165.738281 L 180.238281 151.90625 C 181.347656 151.078125 182.511719 150.347656 183.734375 149.707031 C 184.960938 149.070312 186.226562 148.535156 187.539062 148.097656 C 188.847656 147.664062 190.1875 147.335938 191.550781 147.113281 C 192.914062 146.894531 194.285156 146.785156 195.667969 146.785156 C 197.046875 146.785156 198.417969 146.894531 199.785156 147.113281 C 201.148438 147.335938 202.484375 147.664062 203.792969 148.097656 C 205.105469 148.535156 206.371094 149.070312 207.597656 149.707031 C 208.820312 150.347656 209.988281 151.078125 211.09375 151.90625 L 276.480469 201.261719 C 278.546875 202.769531 280.253906 204.609375 281.609375 206.78125 C 282.960938 208.953125 283.859375 211.296875 284.300781 213.816406 L 284.300781 213.953125 C 284.382812 214.425781 284.542969 214.867188 284.785156 215.28125 C 285.023438 215.699219 285.328125 216.058594 285.699219 216.363281 C 286.066406 216.671875 286.476562 216.902344 286.929688 217.0625 C 287.382812 217.222656 287.847656 217.300781 288.328125 217.292969 L 300.628906 217.292969 Z M 282.597656 143.695312 " fill-opacity="1" fill-rule="nonzero"/><path fill="#24d3ed" d="M 275.058594 215.855469 C 274.875 214.457031 274.421875 213.152344 273.699219 211.941406 C 272.976562 210.726562 272.042969 209.707031 270.898438 208.878906 L 205.378906 159.539062 C 204.683594 159.015625 203.949219 158.550781 203.175781 158.144531 C 202.40625 157.738281 201.605469 157.398438 200.78125 157.125 C 199.953125 156.847656 199.109375 156.640625 198.25 156.5 C 197.390625 156.359375 196.523438 156.289062 195.652344 156.289062 C 194.78125 156.289062 193.914062 156.359375 193.054688 156.5 C 192.195312 156.640625 191.351562 156.847656 190.527344 157.125 C 189.699219 157.398438 188.898438 157.738281 188.128906 158.144531 C 187.355469 158.550781 186.625 159.015625 185.925781 159.539062 L 167.496094 173.371094 C 166.066406 174.433594 164.5625 175.378906 162.984375 176.203125 C 161.40625 177.023438 159.769531 177.71875 158.078125 178.277344 C 156.390625 178.839844 154.664062 179.261719 152.90625 179.542969 C 151.148438 179.828125 149.378906 179.972656 147.597656 179.972656 C 145.820312 179.972656 144.050781 179.828125 142.292969 179.542969 C 140.53125 179.261719 138.808594 178.839844 137.117188 178.277344 C 135.429688 177.71875 133.792969 177.023438 132.214844 176.203125 C 130.636719 175.378906 129.132812 174.433594 127.703125 173.371094 C 126.882812 172.761719 126.148438 172.058594 125.5 171.269531 C 124.851562 170.480469 124.304688 169.625 123.863281 168.703125 C 123.421875 167.78125 123.097656 166.820312 122.886719 165.820312 C 122.679688 164.820312 122.59375 163.808594 122.632812 162.785156 C 122.683594 161.796875 122.84375 160.824219 123.113281 159.871094 C 123.382812 158.914062 123.753906 158.003906 124.226562 157.132812 C 124.699219 156.261719 125.265625 155.453125 125.917969 154.710938 C 126.574219 153.964844 127.304688 153.304688 128.105469 152.722656 L 159.765625 128.859375 C 160.082031 128.691406 160.355469 128.46875 160.582031 128.191406 C 160.808594 127.914062 160.976562 127.605469 161.078125 127.265625 C 161.183594 126.921875 161.21875 126.574219 161.183594 126.21875 C 161.148438 125.859375 161.046875 125.523438 160.878906 125.210938 C 160.710938 124.894531 160.492188 124.621094 160.214844 124.394531 C 159.9375 124.167969 159.628906 124 159.285156 123.898438 C 158.945312 123.792969 158.59375 123.757812 158.238281 123.792969 C 157.882812 123.828125 157.546875 123.925781 157.230469 124.097656 L 105.058594 142.355469 C 101.253906 143.679688 97.339844 144.5 93.320312 144.808594 L 75.546875 217.25 L 84.9375 217.25 C 88.101562 217.25 89.214844 217.761719 90.140625 219.035156 C 92.792969 222.722656 95.65625 226.242188 98.726562 229.589844 C 101.792969 232.9375 105.050781 236.09375 108.492188 239.058594 C 111.9375 242.019531 115.542969 244.769531 119.308594 247.304688 C 123.078125 249.84375 126.984375 252.148438 131.023438 254.222656 C 135.066406 256.296875 139.214844 258.125 143.472656 259.707031 C 147.730469 261.292969 152.066406 262.617188 156.480469 263.6875 C 160.894531 264.757812 165.355469 265.566406 169.867188 266.105469 C 174.375 266.648438 178.902344 266.921875 183.445312 266.929688 L 183.753906 266.929688 C 184.457031 266.9375 185.148438 266.832031 185.820312 266.617188 C 186.492188 266.402344 187.109375 266.085938 187.679688 265.671875 C 188.25 265.257812 188.738281 264.761719 189.148438 264.1875 C 189.558594 263.613281 189.867188 262.988281 190.074219 262.3125 C 190.308594 261.660156 190.441406 260.984375 190.464844 260.289062 C 190.492188 259.59375 190.414062 258.910156 190.226562 258.238281 C 190.039062 257.570312 189.757812 256.941406 189.375 256.359375 C 188.992188 255.777344 188.535156 255.265625 187.992188 254.828125 L 178.546875 247.730469 C 178.296875 247.554688 178.0625 247.351562 177.847656 247.128906 C 177.632812 246.90625 177.441406 246.664062 177.273438 246.40625 C 177.101562 246.148438 176.960938 245.875 176.84375 245.585938 C 176.726562 245.300781 176.636719 245.007812 176.574219 244.703125 C 176.511719 244.402344 176.480469 244.09375 176.476562 243.785156 C 176.472656 243.476562 176.496094 243.167969 176.550781 242.863281 C 176.605469 242.558594 176.6875 242.261719 176.796875 241.972656 C 176.90625 241.683594 177.042969 241.40625 177.207031 241.144531 C 177.386719 240.878906 177.589844 240.628906 177.820312 240.40625 C 178.050781 240.179688 178.300781 239.980469 178.570312 239.804688 C 178.839844 239.628906 179.128906 239.484375 179.425781 239.367188 C 179.726562 239.25 180.035156 239.164062 180.355469 239.109375 C 180.671875 239.058594 180.992188 239.035156 181.3125 239.046875 C 181.632812 239.058594 181.953125 239.101562 182.265625 239.175781 C 182.578125 239.253906 182.878906 239.359375 183.171875 239.496094 C 183.460938 239.632812 183.738281 239.796875 183.996094 239.992188 L 193.386719 247.035156 L 193.84375 247.382812 L 209.78125 259.375 C 210.195312 259.6875 210.632812 259.964844 211.09375 260.203125 C 211.550781 260.445312 212.027344 260.648438 212.519531 260.8125 C 213.011719 260.976562 213.515625 261.101562 214.027344 261.183594 C 214.539062 261.265625 215.054688 261.308594 215.574219 261.308594 C 216.09375 261.308594 216.609375 261.265625 217.121094 261.183594 C 217.632812 261.101562 218.136719 260.976562 218.628906 260.8125 C 219.121094 260.648438 219.597656 260.445312 220.058594 260.203125 C 220.515625 259.964844 220.953125 259.6875 221.371094 259.375 C 222.269531 258.722656 223.03125 257.9375 223.652344 257.011719 C 224.273438 256.089844 224.714844 255.089844 224.980469 254.011719 C 225.230469 253.085938 225.335938 252.148438 225.304688 251.191406 C 225.273438 250.234375 225.105469 249.304688 224.796875 248.402344 C 224.484375 247.496094 224.050781 246.65625 223.488281 245.882812 C 222.929688 245.105469 222.265625 244.429688 221.503906 243.855469 L 202.320312 229.554688 C 201.867188 229.222656 201.484375 228.828125 201.167969 228.367188 C 200.851562 227.902344 200.621094 227.402344 200.480469 226.859375 C 200.335938 226.320312 200.289062 225.769531 200.335938 225.210938 C 200.382812 224.65625 200.519531 224.121094 200.75 223.609375 C 200.902344 223.292969 201.085938 222.996094 201.304688 222.71875 C 201.519531 222.441406 201.765625 222.191406 202.039062 221.96875 C 202.3125 221.75 202.605469 221.558594 202.917969 221.402344 C 203.234375 221.246094 203.5625 221.125 203.90625 221.042969 C 204.246094 220.957031 204.59375 220.914062 204.945312 220.90625 C 205.296875 220.902344 205.644531 220.933594 205.988281 221.003906 C 206.332031 221.074219 206.667969 221.183594 206.988281 221.328125 C 207.308594 221.476562 207.609375 221.65625 207.886719 221.867188 L 227.140625 236.355469 L 227.234375 236.355469 L 237.964844 244.40625 C 238.78125 245.039062 239.671875 245.539062 240.640625 245.898438 C 241.609375 246.257812 242.609375 246.460938 243.640625 246.511719 C 244.671875 246.558594 245.6875 246.453125 246.683594 246.1875 C 247.683594 245.921875 248.617188 245.511719 249.488281 244.953125 C 249.808594 244.742188 250.113281 244.511719 250.402344 244.261719 C 250.695312 244.011719 250.96875 243.746094 251.230469 243.464844 C 251.488281 243.183594 251.730469 242.886719 251.957031 242.574219 C 252.179688 242.265625 252.386719 241.941406 252.570312 241.609375 C 252.757812 241.273438 252.921875 240.929688 253.070312 240.574219 C 253.214844 240.21875 253.339844 239.859375 253.441406 239.488281 C 253.542969 239.121094 253.625 238.746094 253.683594 238.367188 C 253.738281 237.988281 253.777344 237.605469 253.789062 237.222656 C 253.800781 236.839844 253.792969 236.457031 253.761719 236.078125 C 253.726562 235.695312 253.671875 235.316406 253.597656 234.941406 C 253.519531 234.566406 253.417969 234.195312 253.296875 233.832031 C 253.179688 233.46875 253.035156 233.113281 252.871094 232.765625 C 252.710938 232.421875 252.527344 232.085938 252.324219 231.757812 C 252.121094 231.433594 251.898438 231.121094 251.660156 230.824219 C 251.421875 230.523438 251.164062 230.242188 250.890625 229.972656 C 250.617188 229.703125 250.328125 229.453125 250.027344 229.21875 L 225.8125 210.988281 C 225.355469 210.660156 224.96875 210.265625 224.652344 209.804688 C 224.335938 209.339844 224.101562 208.839844 223.957031 208.296875 C 223.8125 207.757812 223.765625 207.207031 223.8125 206.648438 C 223.859375 206.089844 223.996094 205.554688 224.226562 205.042969 C 224.378906 204.726562 224.5625 204.429688 224.78125 204.15625 C 225 203.878906 225.246094 203.628906 225.519531 203.410156 C 225.789062 203.1875 226.085938 203 226.398438 202.84375 C 226.714844 202.6875 227.042969 202.566406 227.382812 202.484375 C 227.726562 202.398438 228.070312 202.355469 228.421875 202.347656 C 228.773438 202.339844 229.121094 202.375 229.464844 202.445312 C 229.808594 202.515625 230.140625 202.621094 230.464844 202.765625 C 230.785156 202.910156 231.082031 203.089844 231.363281 203.300781 L 255.648438 221.570312 L 255.753906 221.664062 L 259.269531 224.347656 C 259.773438 224.730469 260.308594 225.0625 260.875 225.34375 C 261.441406 225.625 262.027344 225.851562 262.636719 226.023438 C 263.246094 226.195312 263.867188 226.308594 264.496094 226.367188 C 265.125 226.421875 265.757812 226.417969 266.386719 226.359375 C 267.015625 226.296875 267.632812 226.175781 268.242188 226 C 268.847656 225.824219 269.433594 225.589844 270 225.304688 C 270.5625 225.015625 271.09375 224.679688 271.597656 224.292969 C 272.097656 223.910156 272.558594 223.480469 272.980469 223.007812 C 273.796875 222.003906 274.382812 220.882812 274.746094 219.644531 C 275.105469 218.402344 275.210938 217.140625 275.058594 215.855469 Z M 275.058594 215.855469 " fill-opacity="1" fill-rule="nonzero"/><path fill="#24d3ed" d="M 36.347656 110.425781 C 34.195312 114.792969 32.234375 119.246094 30.46875 123.785156 C 28.699219 128.320312 27.128906 132.925781 25.757812 137.597656 C 24.386719 142.269531 23.21875 146.992188 22.253906 151.765625 C 21.289062 156.535156 20.527344 161.339844 19.976562 166.179688 C 19.425781 171.015625 19.082031 175.871094 18.945312 180.738281 C 18.8125 185.605469 18.886719 190.46875 19.167969 195.328125 C 19.453125 200.191406 19.945312 205.03125 20.644531 209.847656 C 21.34375 214.667969 22.25 219.445312 23.359375 224.1875 L 60.574219 233.308594 L 87.605469 122.96875 Z M 36.347656 110.425781 " fill-opacity="1" fill-rule="nonzero"/><g clip-path="url(#0a21787ca0)"><path fill="#24d3ed" d="M 339.789062 110.425781 L 288.554688 122.96875 L 315.585938 233.257812 L 352.8125 224.132812 C 355.777344 211.40625 357.257812 198.511719 357.253906 185.445312 C 357.265625 178.960938 356.90625 172.5 356.171875 166.058594 C 355.4375 159.617188 354.335938 153.238281 352.867188 146.921875 C 351.394531 140.609375 349.566406 134.398438 347.378906 128.296875 C 345.191406 122.195312 342.664062 116.238281 339.789062 110.425781 Z M 339.789062 110.425781 " fill-opacity="1" fill-rule="nonzero"/></g><path fill="#f0f3ff" d="M 49.613281 221.90625 C 49.128906 221.90625 48.648438 221.859375 48.171875 221.765625 C 47.695312 221.671875 47.234375 221.53125 46.785156 221.34375 C 46.335938 221.160156 45.910156 220.929688 45.507812 220.660156 C 45.105469 220.390625 44.730469 220.085938 44.386719 219.742188 C 44.042969 219.398438 43.738281 219.027344 43.46875 218.621094 C 43.199219 218.21875 42.96875 217.792969 42.785156 217.34375 C 42.597656 216.894531 42.457031 216.433594 42.363281 215.957031 C 42.269531 215.480469 42.222656 215 42.222656 214.515625 C 42.222656 214.03125 42.269531 213.550781 42.363281 213.074219 C 42.457031 212.597656 42.597656 212.136719 42.785156 211.6875 C 42.96875 211.238281 43.199219 210.8125 43.46875 210.410156 C 43.738281 210.003906 44.042969 209.632812 44.386719 209.289062 C 44.730469 208.945312 45.105469 208.640625 45.507812 208.367188 C 45.910156 208.097656 46.335938 207.871094 46.785156 207.6875 C 47.234375 207.5 47.695312 207.359375 48.171875 207.265625 C 48.648438 207.171875 49.128906 207.125 49.613281 207.125 C 50.097656 207.125 50.578125 207.171875 51.054688 207.265625 C 51.53125 207.359375 51.996094 207.5 52.441406 207.6875 C 52.890625 207.871094 53.316406 208.097656 53.71875 208.367188 C 54.125 208.640625 54.496094 208.945312 54.839844 209.289062 C 55.183594 209.632812 55.492188 210.003906 55.761719 210.410156 C 56.03125 210.8125 56.257812 211.238281 56.441406 211.6875 C 56.628906 212.136719 56.769531 212.597656 56.863281 213.074219 C 56.957031 213.550781 57.003906 214.03125 57.003906 214.515625 C 57.003906 215 56.957031 215.480469 56.863281 215.957031 C 56.769531 216.433594 56.628906 216.894531 56.441406 217.34375 C 56.257812 217.792969 56.03125 218.21875 55.761719 218.621094 C 55.492188 219.027344 55.183594 219.398438 54.839844 219.742188 C 54.496094 220.085938 54.125 220.390625 53.71875 220.660156 C 53.316406 220.929688 52.890625 221.160156 52.441406 221.34375 C 51.996094 221.53125 51.53125 221.671875 51.054688 221.765625 C 50.578125 221.859375 50.097656 221.90625 49.613281 221.90625 Z M 49.613281 221.90625 " fill-opacity="1" fill-rule="nonzero"/><path fill="#f0f3ff" d="M 325.417969 221.90625 C 324.933594 221.90625 324.453125 221.859375 323.976562 221.765625 C 323.5 221.671875 323.039062 221.53125 322.589844 221.34375 C 322.140625 221.160156 321.714844 220.929688 321.3125 220.660156 C 320.910156 220.390625 320.535156 220.085938 320.191406 219.742188 C 319.847656 219.398438 319.542969 219.027344 319.273438 218.621094 C 319.003906 218.21875 318.777344 217.792969 318.589844 217.34375 C 318.40625 216.894531 318.265625 216.433594 318.167969 215.957031 C 318.074219 215.480469 318.027344 215 318.027344 214.515625 C 318.027344 214.03125 318.074219 213.550781 318.167969 213.074219 C 318.265625 212.597656 318.40625 212.136719 318.589844 211.6875 C 318.777344 211.238281 319.003906 210.8125 319.273438 210.410156 C 319.542969 210.003906 319.847656 209.632812 320.191406 209.289062 C 320.535156 208.945312 320.910156 208.640625 321.3125 208.367188 C 321.714844 208.097656 322.140625 207.871094 322.589844 207.6875 C 323.039062 207.5 323.5 207.359375 323.976562 207.265625 C 324.453125 207.171875 324.933594 207.125 325.417969 207.125 C 325.90625 207.125 326.386719 207.171875 326.863281 207.265625 C 327.335938 207.359375 327.800781 207.5 328.25 207.6875 C 328.695312 207.871094 329.121094 208.097656 329.527344 208.367188 C 329.929688 208.640625 330.304688 208.945312 330.644531 209.289062 C 330.988281 209.632812 331.296875 210.003906 331.566406 210.410156 C 331.835938 210.8125 332.0625 211.238281 332.25 211.6875 C 332.433594 212.136719 332.574219 212.597656 332.667969 213.074219 C 332.765625 213.550781 332.8125 214.03125 332.8125 214.515625 C 332.8125 215 332.765625 215.480469 332.667969 215.957031 C 332.574219 216.433594 332.433594 216.894531 332.25 217.34375 C 332.0625 217.792969 331.835938 218.21875 331.566406 218.621094 C 331.296875 219.027344 330.988281 219.398438 330.644531 219.742188 C 330.304688 220.085938 329.929688 220.390625 329.527344 220.660156 C 329.121094 220.929688 328.695312 221.160156 328.25 221.34375 C 327.800781 221.53125 327.335938 221.671875 326.863281 221.765625 C 326.386719 221.859375 325.90625 221.90625 325.417969 221.90625 Z M 325.417969 221.90625 " fill-opacity="1" fill-rule="nonzero"/></svg>