<svg xmlns="http://www.w3.org/2000/svg" xmlns:xlink="http://www.w3.org/1999/xlink" width="500" zoomAndPan="magnify" viewBox="0 0 375 374.999991" height="500" preserveAspectRatio="xMidYMid meet" version="1.0"><defs><filter x="0%" y="0%" width="100%" height="100%" id="c4cbd7aca3"><feColorMatrix values="0 0 0 0 1 0 0 0 0 1 0 0 0 0 1 0 0 0 1 0" color-interpolation-filters="sRGB"/></filter><clipPath id="b6771bc511"><path d="M 62.074219 97.316406 L 353 97.316406 L 353 318.371094 L 62.074219 318.371094 Z M 62.074219 97.316406 " clip-rule="nonzero"/></clipPath><clipPath id="6fcf48d40a"><path d="M 141.53125 97.316406 L 347.589844 97.316406 C 349.328125 97.316406 350.957031 98.152344 351.972656 99.5625 C 352.988281 100.972656 353.265625 102.78125 352.71875 104.429688 L 283.773438 311.257812 C 282.359375 315.507812 278.382812 318.371094 273.902344 318.371094 L 67.847656 318.371094 C 66.109375 318.371094 64.476562 317.535156 63.460938 316.128906 C 62.445312 314.71875 62.171875 312.90625 62.71875 311.257812 L 131.660156 104.429688 C 133.078125 100.183594 137.054688 97.316406 141.53125 97.316406 " clip-rule="nonzero"/></clipPath><mask id="b7bf6b6807"><g filter="url(#c4cbd7aca3)"><rect x="-37.5" width="450" fill="#000000" y="-37.499999" height="449.999989" fill-opacity="0.8"/></g></mask><clipPath id="d199f6402c"><path d="M 3 0.628906 L 293.925781 0.628906 L 293.925781 221.683594 L 3 221.683594 Z M 3 0.628906 " clip-rule="nonzero"/></clipPath><clipPath id="d614b3a542"><path d="M 82.097656 0.628906 L 288.152344 0.628906 C 289.890625 0.628906 291.523438 1.464844 292.539062 2.871094 C 293.554688 4.28125 293.828125 6.09375 293.28125 7.742188 L 224.339844 214.570312 C 222.921875 218.816406 218.945312 221.683594 214.46875 221.683594 L 8.410156 221.683594 C 6.671875 221.683594 5.042969 220.847656 4.027344 219.4375 C 3.007812 218.027344 2.734375 216.21875 3.28125 214.570312 L 72.226562 7.742188 C 73.640625 3.492188 77.617188 0.628906 82.097656 0.628906 " clip-rule="nonzero"/></clipPath><clipPath id="ccb8bba79d"><rect x="0" width="296" y="0" height="222"/></clipPath></defs><g clip-path="url(#b6771bc511)"><g clip-path="url(#6fcf48d40a)"><path fill="#0558ee" d="M 60.347656 97.316406 L 355.089844 97.316406 L 355.089844 318.371094 L 60.347656 318.371094 Z M 60.347656 97.316406 " fill-opacity="1" fill-rule="nonzero"/></g></g><g mask="url(#b7bf6b6807)"><g transform="matrix(1, 0, 0, 1, 19, 56)"><g clip-path="url(#ccb8bba79d)"><g clip-path="url(#d199f6402c)"><g clip-path="url(#d614b3a542)"><path fill="#21e8e6" d="M 0.910156 0.628906 L 295.652344 0.628906 L 295.652344 221.683594 L 0.910156 221.683594 Z M 0.910156 0.628906 " fill-opacity="1" fill-rule="nonzero"/></g></g></g></g></g></svg>